<svg xmlns="http://www.w3.org/2000/svg" width="512" height="512" viewBox="0 0 512 512" fill="none">
  <rect width="512" height="512" rx="112" fill="#2B57FF"></rect>
  <g transform="translate(67.97 -50.52) scale(4.2929)">
    <path d="M27.60 111L8.28 111L8.28 31.80L42 31.80Q48.60 31.80 54 32.82Q59.40 33.84 63.54 35.82Q67.68 37.80 70.56 40.62Q73.44 43.44 74.88 47.10Q76.32 50.76 76.32 55.20L76.32 55.20Q76.32 59.40 75 62.76Q73.68 66.12 70.98 68.64Q68.28 71.16 64.20 72.72Q60.12 74.28 54.72 75L54.72 75L54.72 76.80Q61.56 77.52 65.34 79.86Q69.12 82.20 71.16 86.04Q73.20 89.88 74.76 95.28L74.76 95.28L79.32 111L57.84 111L54.36 96.48Q53.28 91.68 51.42 89.04Q49.56 86.40 46.68 85.38Q43.80 84.36 39.48 84.36L39.48 84.36L27.60 84.36L27.60 111ZM27.60 46.44L27.60 70.08L40.68 70.08Q48 70.08 52.08 67.20Q56.16 64.32 56.16 58.20L56.16 58.20Q56.16 52.20 52.44 49.32Q48.72 46.44 41.16 46.44L41.16 46.44L27.60 46.44Z" fill="#FFFFFF"></path>
  </g>
</svg>