<svg xmlns="http://www.w3.org/2000/svg" width="756" height="144" viewBox="0 0 756 144" fill="none" role="img" aria-label="Rogue Talent">
  <path d="M27.60 111L8.28 111L8.28 31.80L42 31.80Q48.60 31.80 54 32.82Q59.40 33.84 63.54 35.82Q67.68 37.80 70.56 40.62Q73.44 43.44 74.88 47.10Q76.32 50.76 76.32 55.20L76.32 55.20Q76.32 59.40 75 62.76Q73.68 66.12 70.98 68.64Q68.28 71.16 64.20 72.72Q60.12 74.28 54.72 75L54.72 75L54.72 76.80Q61.56 77.52 65.34 79.86Q69.12 82.20 71.16 86.04Q73.20 89.88 74.76 95.28L74.76 95.28L79.32 111L57.84 111L54.36 96.48Q53.28 91.68 51.42 89.04Q49.56 86.40 46.68 85.38Q43.80 84.36 39.48 84.36L39.48 84.36L27.60 84.36L27.60 111ZM27.60 46.44L27.60 70.08L40.68 70.08Q48 70.08 52.08 67.20Q56.16 64.32 56.16 58.20L56.16 58.20Q56.16 52.20 52.44 49.32Q48.72 46.44 41.16 46.44L41.16 46.44L27.60 46.44Z M114.96 112.68L114.96 112.68Q105.36 112.68 97.98 108.96Q90.60 105.24 86.40 97.80Q82.20 90.36 82.20 79.20L82.20 79.20Q82.20 68.04 86.40 60.66Q90.60 53.28 98.04 49.62Q105.48 45.96 115.08 45.96L115.08 45.96Q124.68 45.96 132.12 49.68Q139.56 53.40 143.76 60.78Q147.96 68.16 147.96 79.32L147.96 79.32Q147.96 90.72 143.64 98.16Q139.32 105.60 131.82 109.14Q124.32 112.68 114.96 112.68ZM115.56 98.64L115.56 98.64Q119.88 98.64 122.76 96.66Q125.64 94.68 127.08 90.60Q128.52 86.52 128.52 80.52L128.52 80.52Q128.52 74.16 126.96 69.78Q125.40 65.40 122.34 63.06Q119.28 60.72 114.48 60.72L114.48 60.72Q110.40 60.72 107.46 62.70Q104.52 64.68 103.08 68.76Q101.64 72.84 101.64 78.96L101.64 78.96Q101.64 88.80 105.30 93.72Q108.96 98.64 115.56 98.64Z M180.60 133.20L180.60 133.20Q170.04 133.20 163.26 131.58Q156.48 129.96 153.36 126.78Q150.24 123.60 150.24 119.04L150.24 119.04Q150.24 113.52 154.62 110.04Q159 106.56 167.52 106.08L167.52 106.08L167.52 103.56Q160.92 103.56 157.38 102.24Q153.84 100.92 153.84 97.32L153.84 97.32Q153.84 93.96 157.32 91.20Q160.80 88.44 168.84 86.88L168.84 86.88L168.84 84.36Q161.52 83.76 157.20 79.50Q152.88 75.24 152.88 68.28L152.88 68.28Q152.88 62.40 156.24 57.54Q159.60 52.68 166.32 49.74Q173.04 46.80 183.12 46.80L183.12 46.80L216 46.80L216 61.32L195.96 58.68L195.96 61.56Q203.76 62.64 207.12 65.16Q210.48 67.68 210.48 72.24L210.48 72.24Q210.48 77.04 207.18 80.76Q203.88 84.48 197.88 86.58Q191.88 88.68 183.60 88.68L183.60 88.68Q182.16 88.68 180.42 88.56Q178.68 88.44 174 87.96L174 87.96Q172.08 89.64 171 90.78Q169.92 91.92 169.92 92.88L169.92 92.88Q169.92 93.60 170.52 94.08Q171.12 94.56 172.26 94.74Q173.40 94.92 174.72 94.92L174.72 94.92L194.04 94.92Q196.44 94.92 200.34 95.22Q204.24 95.52 208.14 97.08Q212.04 98.64 214.74 102.12Q217.44 105.60 217.44 112.08L217.44 112.08Q217.44 119.16 213.48 123.90Q209.52 128.64 201.36 130.92Q193.20 133.20 180.60 133.20ZM183.12 117.84L183.12 117.84Q190.08 117.84 193.92 117.12Q197.76 116.40 199.26 114.84Q200.76 113.28 200.76 111L200.76 111Q200.76 108.84 199.92 107.58Q199.08 106.32 197.76 105.84Q196.44 105.36 195.06 105.24Q193.68 105.12 192.72 105.12L192.72 105.12L177.24 105.12Q172.80 105.12 170.70 107.22Q168.60 109.32 168.60 112.08L168.60 112.08Q168.60 114.36 170.04 115.62Q171.48 116.88 174.66 117.36Q177.84 117.84 183.12 117.84ZM182.28 79.08L182.28 79.08Q187.44 79.08 190.02 76.32Q192.60 73.56 192.60 69.36L192.60 69.36Q192.60 64.80 189.96 61.86Q187.32 58.92 182.40 58.92L182.40 58.92Q177.48 58.92 174.72 61.86Q171.96 64.80 171.96 69.36L171.96 69.36Q171.96 72.12 173.16 74.34Q174.36 76.56 176.64 77.82Q178.92 79.08 182.28 79.08Z M245.40 112.68L245.40 112.68Q234.12 112.68 228.42 105.06Q222.72 97.44 222.72 81.84L222.72 81.84L222.72 47.64L242.16 47.64L242.16 79.32Q242.16 88.20 244.80 92.58Q247.44 96.96 252.84 96.96L252.84 96.96Q256.08 96.96 258.42 95.34Q260.76 93.72 262.38 90.78Q264 87.84 264.78 84Q265.56 80.16 265.56 75.60L265.56 75.60L265.56 47.64L284.88 47.64L284.88 111L269.52 111L269.16 91.44L266.76 91.44Q264.96 98.88 262.26 103.62Q259.56 108.36 255.48 110.52Q251.40 112.68 245.40 112.68Z M325.68 112.68L325.68 112.68Q317.76 112.68 311.52 110.58Q305.28 108.48 300.90 104.40Q296.52 100.32 294.24 94.32Q291.96 88.32 291.96 80.52L291.96 80.52Q291.96 72.96 294.18 66.60Q296.40 60.24 300.54 55.62Q304.68 51 310.74 48.48Q316.80 45.96 324.36 45.96L324.36 45.96Q332.04 45.96 337.86 48.42Q343.68 50.88 347.46 55.68Q351.24 60.48 353.04 67.38Q354.84 74.28 354.24 83.16L354.24 83.16L310.56 83.52Q311.16 90.84 314.76 94.44L314.76 94.44Q318.96 98.88 325.56 98.88L325.56 98.88Q328.80 98.88 330.96 97.98Q333.12 97.08 334.50 95.70Q335.88 94.32 336.66 92.64Q337.44 90.96 337.92 89.40L337.92 89.40L354.72 93Q353.76 97.44 351.66 101.04Q349.56 104.64 346.02 107.28Q342.48 109.92 337.50 111.30Q332.52 112.68 325.68 112.68ZM311.04 73.44L311.04 73.44L336.60 73.20Q336.60 70.20 335.64 67.92L335.64 67.92Q334.08 64.20 331.08 62.46Q328.08 60.72 324.60 60.72L324.60 60.72Q320.40 60.72 317.22 63Q314.04 65.28 312.24 69.60L312.24 69.60Q311.52 71.28 311.04 73.44Z" fill="#FFFFFF"></path>
  <path d="M421.32 111L401.88 111L401.88 47.88L378.84 47.88L378.84 31.80L444.60 31.80L444.60 47.88L421.32 47.88L421.32 111Z M464.52 112.68L464.52 112.68Q459.24 112.68 455.16 110.58Q451.08 108.48 448.80 104.46Q446.52 100.44 446.52 94.68L446.52 94.68Q446.52 89.28 448.62 85.74Q450.72 82.20 454.74 80.10Q458.76 78 464.40 76.62Q470.04 75.24 477.24 74.16L477.24 74.16Q480.72 73.56 483.06 73.02Q485.40 72.48 486.60 71.28Q487.80 70.08 487.80 67.80L487.80 67.80Q487.80 64.80 485.64 62.64Q483.48 60.48 478.68 60.48L478.68 60.48Q475.32 60.48 472.62 61.68Q469.92 62.88 468.00 65.16Q466.08 67.44 465.12 70.68L465.12 70.68L448.08 65.64Q449.64 60.60 452.46 56.88Q455.28 53.16 459.24 50.70Q463.20 48.24 468.30 47.10Q473.40 45.96 479.16 45.96L479.16 45.96Q488.76 45.96 494.82 49.02Q500.88 52.08 503.82 58.50Q506.76 64.92 506.76 75L506.76 75L506.76 84.72Q506.76 89.04 506.94 93.42Q507.12 97.80 507.42 102.18Q507.72 106.56 508.20 111L508.20 111L491.16 111Q490.68 108.24 490.20 104.34Q489.72 100.44 489.48 96.36L489.48 96.36L487.20 96.36Q485.52 100.92 482.34 104.70Q479.16 108.48 474.66 110.58Q470.16 112.68 464.52 112.68ZM473.28 99L473.28 99Q475.44 99 477.66 98.22Q479.88 97.44 481.92 96.06Q483.96 94.68 485.64 92.64Q487.32 90.60 488.16 88.20L488.16 88.20L487.92 80.64Q486.84 81.24 485.52 81.60L485.52 81.60Q482.76 82.44 479.94 82.92Q477.12 83.40 474.42 83.94Q471.72 84.48 469.62 85.32Q467.52 86.16 466.32 87.60Q465.12 89.04 465.12 91.56L465.12 91.56Q465.12 94.92 467.40 96.96Q469.68 99 473.28 99Z M535.80 111L516.84 111L516.84 24.60L535.80 24.60L535.80 111Z M576.72 112.68L576.72 112.68Q568.80 112.68 562.56 110.58Q556.32 108.48 551.94 104.40Q547.56 100.32 545.28 94.32Q543.00 88.32 543.00 80.52L543.00 80.52Q543.00 72.96 545.22 66.60Q547.44 60.24 551.58 55.62Q555.72 51 561.78 48.48Q567.84 45.96 575.40 45.96L575.40 45.96Q583.08 45.96 588.90 48.42Q594.72 50.88 598.50 55.68Q602.28 60.48 604.08 67.38Q605.88 74.28 605.28 83.16L605.28 83.16L561.60 83.52Q562.20 90.84 565.80 94.44L565.80 94.44Q570.00 98.88 576.60 98.88L576.60 98.88Q579.84 98.88 582.00 97.98Q584.16 97.08 585.54 95.70Q586.92 94.32 587.70 92.64Q588.48 90.96 588.96 89.40L588.96 89.40L605.76 93Q604.80 97.44 602.70 101.04Q600.60 104.64 597.06 107.28Q593.52 109.92 588.54 111.30Q583.56 112.68 576.72 112.68ZM562.08 73.44L562.08 73.44L587.64 73.20Q587.64 70.20 586.68 67.92L586.68 67.92Q585.12 64.20 582.12 62.46Q579.12 60.72 575.64 60.72L575.64 60.72Q571.44 60.72 568.26 63Q565.08 65.28 563.28 69.60L563.28 69.60Q562.56 71.28 562.08 73.44Z M632.16 111L612.84 111L612.84 47.64L628.44 47.64L628.68 66.24L631.08 66.24Q632.64 59.52 635.52 54.96Q638.40 50.40 642.84 48.18Q647.28 45.96 653.28 45.96L653.28 45.96Q664.44 45.96 670.26 53.76Q676.08 61.56 676.08 78.60L676.08 78.60L676.08 111L656.64 111L656.64 80.76Q656.64 70.92 653.82 66.42Q651.00 61.92 645.48 61.92L645.48 61.92Q640.92 61.92 637.98 64.68Q635.04 67.44 633.60 72Q632.16 76.56 632.16 82.20L632.16 82.20L632.16 111Z M710.52 112.56L710.52 112.56Q699.36 112.56 694.08 106.62Q688.80 100.68 688.80 87.60L688.80 87.60L688.80 62.76L679.80 62.76L680.16 47.76L686.64 47.76Q690.48 47.64 692.46 46.56Q694.44 45.48 694.92 42.48L694.92 42.48L696.48 33.60L707.40 33.60L707.40 47.64L722.64 47.64L722.64 63.36L707.40 63.36L707.40 86.76Q707.40 90.84 709.38 92.76Q711.36 94.68 715.44 94.68L715.44 94.68Q717.72 94.68 719.76 94.20Q721.80 93.72 723.12 92.88L723.12 92.88L723.12 110.76Q719.28 111.96 716.10 112.26Q712.92 112.56 710.52 112.56Z M737.88 112.56L737.88 112.56Q731.64 112.56 728.58 109.92Q725.52 107.28 725.52 101.76L725.52 101.76Q725.52 96.12 728.58 93.48Q731.64 90.84 737.88 90.84L737.88 90.84Q744.24 90.84 747.36 93.48Q750.48 96.12 750.48 101.76L750.48 101.76Q750.48 112.56 737.88 112.56Z" fill="#5B7BFF"></path>
</svg>